<?xml version="1.0" standalone="no"?>
<!DOCTYPE svg PUBLIC "-//W3C//DTD SVG 1.1//EN" "http://www.w3.org/Graphics/SVG/1.1/DTD/svg11.dtd" >
<svg xmlns="http://www.w3.org/2000/svg">
<metadata>
Created by FontForge 20120731 at Thu Nov 10 15:58:26 2016
 By admin
</metadata>
<defs>
<font id="iconfont" horiz-adv-x="1024" >
  <font-face 
    font-family="iconfont"
    font-weight="500"
    font-stretch="normal"
    units-per-em="1024"
    panose-1="2 0 6 3 0 0 0 0 0 0"
    ascent="896"
    descent="-128"
    x-height="792"
    bbox="0 -224 3301 896"
    underline-thickness="0"
    underline-position="0"
    unicode-range="U+0078-F0006"
  />
<missing-glyph 
 />
    <glyph glyph-name=".notdef" 
 />
    <glyph glyph-name=".null" horiz-adv-x="0" 
 />
    <glyph glyph-name="nonmarkingreturn" horiz-adv-x="341" 
 />
    <glyph glyph-name="x" unicode="x" horiz-adv-x="1001" 
d="M281 543q-27 -1 -53 -1h-83q-18 0 -36.5 -6t-32.5 -18.5t-23 -32t-9 -45.5v-76h912v41q0 16 -0.5 30t-0.5 18q0 13 -5 29t-17 29.5t-31.5 22.5t-49.5 9h-133v-97h-438v97zM955 310v-52q0 -23 0.5 -52t0.5 -58t-10.5 -47.5t-26 -30t-33 -16t-31.5 -4.5q-14 -1 -29.5 -0.5
t-29.5 0.5h-32l-45 128h-439l-44 -128h-29h-34q-20 0 -45 1q-25 0 -41 9.5t-25.5 23t-13.5 29.5t-4 30v167h911zM163 247q-12 0 -21 -8.5t-9 -21.5t9 -21.5t21 -8.5q13 0 22 8.5t9 21.5t-9 21.5t-22 8.5zM316 123q-8 -26 -14 -48q-5 -19 -10.5 -37t-7.5 -25t-3 -15t1 -14.5
t9.5 -10.5t21.5 -4h37h67h81h80h64h36q23 0 34 12t2 38q-5 13 -9.5 30.5t-9.5 34.5q-5 19 -11 39h-368zM336 498v228q0 11 2.5 23t10 21.5t20.5 15.5t34 6h188q31 0 51.5 -14.5t20.5 -52.5v-227h-327z" />
    <glyph glyph-name="guanbi" unicode="&#xf0006;" 
d="M286 28l-45 45q-10 9 -10 22.5t10 22.5l181 181l-181 182q-10 9 -10 22.5t10 22.5l45 45q9 10 22.5 10t22.5 -10l182 -181l181 181q9 10 22.5 10t22.5 -10l45 -45q10 -9 10 -22.5t-10 -22.5l-181 -182l181 -181q10 -9 10 -22.5t-10 -22.5l-45 -45q-9 -10 -22.5 -10
t-22.5 10l-181 181l-182 -181q-9 -10 -22.5 -10t-22.5 10z" />
    <glyph glyph-name="iconfontjinggao" unicode="&#xe689;" 
d="M512 812q-104 0 -199 -40.5t-163.5 -109t-109 -163.5t-40.5 -199t40.5 -199t109 -163.5t163.5 -109t199 -40.5t199 40.5t163.5 109t109 163.5t40.5 199t-40.5 199t-109 163.5t-163.5 109t-199 40.5zM446 554q0 27 19.5 46.5t46.5 19.5t46.5 -19.5t19.5 -46.5v-318
q0 -27 -19.5 -46.5t-46.5 -19.5t-46.5 19.5t-19.5 46.5v318zM512 -20q-28 0 -47.5 20t-19.5 47.5t19.5 47t47.5 19.5t47.5 -19.5t19.5 -47t-19.5 -47.5t-47.5 -20z" />
    <glyph glyph-name="set" unicode="&#xe737;" 
d="M976 390h-120q-11 36 -29 69l86 85q14 14 14 34t-14 34l-77 77q-14 14 -34 14t-34 -14l-86 -86q-32 18 -68 29v120q0 20 -14 34t-34 14h-108q-20 0 -34 -14t-14 -34v-120q-36 -11 -69 -29l-85 86q-14 14 -34 14t-34 -14l-77 -77q-14 -14 -14 -34t14 -34l86 -85
q-18 -33 -29 -69h-120q-20 0 -34 -14t-14 -34v-108q0 -20 14 -34t34 -14h120q11 -36 29 -69l-86 -85q-14 -14 -14 -34t14 -34l77 -77q14 -14 34 -14t34 14l85 86q33 -18 69 -29v-120q0 -20 14 -34t34 -14h108q20 0 34 14t14 34v120q36 11 69 29l85 -86q14 -14 34 -14t34 14
l77 77q14 14 14 34t-14 34l-86 86q18 32 29 68h120q20 0 34 14t14 34v108q0 20 -14 34t-34 14zM512 83q-85 0 -145 60t-60 145t60 145t145 60t145 -60t60 -145t-60 -145t-145 -60z" />
    <glyph glyph-name="iconfontmark" unicode="&#xe624;" 
d="M512 -116q-16 0 -26 13l-65 91q-156 28 -256.5 133.5t-100.5 242.5q0 159 131.5 271.5t316.5 112.5t316.5 -112.5t131.5 -271.5q0 -137 -100.5 -242.5t-256.5 -133.5l-65 -91q-10 -13 -26 -13zM512 684q-159 0 -271.5 -94t-112.5 -226q0 -116 89.5 -205t226.5 -110
q13 -2 21 -13l47 -65l47 65q7 11 21 13q137 21 226.5 110t89.5 205q0 132 -112.5 226t-271.5 94zM288.5 300q-26.5 0 -45.5 19t-19 45t19 45t45.5 19t45 -19t18.5 -45t-18.5 -45t-45 -19zM288 364v0v-32v32zM736.5 300q-26.5 0 -45.5 19t-19 45t19 45t45.5 19t45 -19
t18.5 -45t-18.5 -45t-45 -19zM736 364v0v-32v32zM512.5 300q-26.5 0 -45.5 19t-19 45t19 45t45.5 19t45 -19t18.5 -45t-18.5 -45t-45 -19zM512 364v0v-32v32z" />
    <glyph glyph-name="zuixiaohua" unicode="&#xe667;" 
d="M256 406h512q26 0 45 -18.5t19 -45t-19 -45.5t-45 -19h-512q-26 0 -45 19t-19 45.5t19 45t45 18.5z" />
    <glyph glyph-name="zuidahua" unicode="&#xe656;" 
d="M827 644v-1l-629 1v0h-69v-579h69v1l629 -1v0h69v579h-69zM198 136v439l629 -1v-439z" />
    <glyph glyph-name="zuidahua2" unicode="&#xe623;" 
d="M512 -359zM866 586h-555q-11 0 -18.5 -8t-7.5 -19v-87h-93q-11 0 -18.5 -7.5t-7.5 -18.5v-350q0 -11 7.5 -19t18.5 -8h555q11 0 19 8t8 19v87h92q11 0 18.5 7.5t7.5 18.5v350q0 11 -7.5 19t-18.5 8zM729 114h-518v313h518v-313zM847 228h-73v218q0 11 -8 18.5t-19 7.5
h-417v69h517v-313z" />
    <glyph glyph-name="dingdanguanli" unicode="&#xe602;" 
d="M888 865h-69q-15 0 -27.5 -8t-12.5 -21t13 -24t27 -11h69q30 0 49 -18t19 -46v-737q0 -29 -19 -46.5t-49 -17.5h-734q-33 0 -59.5 18.5t-26.5 45.5v737q0 28 19 46t49 18h86q13 0 19.5 10t6.5 25q0 29 -26 29h-86q-68 0 -102 -35.5t-34 -94.5v-728q0 -61 38 -98t106 -37
h736q70 0 107 34.5t37 100.5v728q0 57 -36 93.5t-100 36.5v0zM222 576q0 -13 10.5 -23t24.5 -10h512q14 0 24.5 10t10.5 23t-10.5 23t-24.5 10h-512q-14 0 -24.5 -10t-10.5 -23v0zM767 432h-510q-14 0 -24.5 -10t-10.5 -23t10.5 -23t24.5 -10h512q14 0 24.5 10t10.5 23
q-2 14 -12 23.5t-25 9.5v0zM767 240h-510q-14 0 -24.5 -10t-10.5 -23t10.5 -23t24.5 -10h512q14 0 24.5 10t10.5 23q-2 14 -12 23.5t-25 9.5v0zM395 784h237q21 0 36 17t15 39.5t-15 39t-37 16.5h-236q-22 0 -37.5 -16.5t-15.5 -39t15.5 -39.5t37.5 -17v0z" />
    <glyph glyph-name="sousuo" unicode="&#xe607;" 
d="M400 896h77q146 -18 242 -104q70 -58 112 -142t46 -175q7 -81 -19.5 -160.5t-79.5 -146.5q28 -30 115.5 -115.5t130.5 -136.5v-19q-10 -15 -26 -25h-15q-10 9 -20.5 17.5t-22 20t-19 18.5t-21 21t-18 19t-20.5 22t-18 20q-21 22 -61 61.5t-49 48.5q-116 -102 -251 -113
q-119 -14 -232 41t-178 157q-56 82 -73 207v76q8 55 25 112q45 124 148 204q89 74 227 92zM408 828q-69 -5 -134 -38q-74 -35 -126.5 -103t-73.5 -151q-23 -101 10.5 -204.5t112.5 -170.5q59 -50 133.5 -74t148.5 -14q95 10 175.5 68t120.5 144q48 98 34.5 210t-81.5 196
q-58 71 -144.5 109t-175.5 28z" />
    <glyph glyph-name="fukuandingdanguanli" unicode="&#xe608;" horiz-adv-x="1075" 
d="M89 896h736q27 -5 49 -22t31 -42q6 -20 7 -84v-410q73 -30 109 -78q42 -51 53 -127v-45q-11 -74 -50 -123q-29 -38 -72.5 -62t-93.5 -31h-45q-76 12 -123 50q-4 3 -14.5 12.5t-16.5 13.5q-9 2 -48 3h-244.5t-244.5 -1q-43 -1 -69 13q-33 21 -44 49q-5 17 -9 40v743
q8 45 22 62q25 31 67 39zM41 779q-1 -50 -0.5 -352t0.5 -352q-5 -35 23 -62.5t62 -21.5h251t251 1q-30 61 -31 107q-4 86 48 155q37 52 99.5 77t126.5 17v203.5v203.5q0 39 -2 49q-8 22 -27.5 37.5t-41.5 13.5h-681q-31 5 -55.5 -20t-22.5 -56v0zM815 300q-42 -4 -77 -25
q-47 -28 -73 -79.5t-19 -105.5q5 -54 40.5 -98.5t87.5 -61.5q57 -21 118 -2t96 68q34 44 38 102t-24 106q-27 49 -79.5 76.5t-107.5 19.5zM322 603q0 8 7.5 14t16.5 6q7 -1 21 -14q9 -11 41 -49.5t50 -58.5q15 16 46 52.5t48 55.5q6 8 16.5 8.5t17.5 -7.5q6 -6 5.5 -15.5
t-7.5 -15.5q-15 -19 -49.5 -59t-51.5 -63h54.5t54.5 -1q13 0 17 -14q4 -9 -2 -19t-17 -10q-11 -1 -108 -2v-45q7 0 56 0.5t56 -1.5q15 -4 16.5 -20.5t-13.5 -21.5q-5 -3 -57.5 -2.5t-57.5 0.5q0 -51 -1 -62q-4 -14 -21 -14.5t-21 13.5q-2 9 -2 63q-13 0 -55 -0.5t-55 0.5
q-10 0 -16.5 8t-4.5 18q5 17 17 18q7 0 114 1v22.5v22.5h-54t-54 1q-17 1 -23 17q-2 3 -0.5 8t2.5 7t4 6.5t5 6.5q39 -1 121 0q-56 65 -106 122q-12 13 -10 24zM773 223q8 12 24 9t18 -17q2 -3 1.5 -63t-0.5 -63q14 0 62 0.5t62 -0.5t20 -14.5t-3 -23.5q-5 -9 -24 -9
q-26 -1 -131 -1q-11 -1 -21 3.5t-11 14.5q-2 5 -2 59v60q1 8 0.5 15t0.5 15.5t4 14.5z" />
    <glyph glyph-name="zuojiantou" unicode="&#xe609;" 
d="M728 896h33l12 -6t14 -7.5t11.5 -7t11.5 -10t7 -12.5q10 -18 13 -27v-33q-20 -42 -58 -79q-168 -166 -330 -330q91 -93 336 -336q1 -2 4 -5q40 -41 48 -69v-32q-1 -3 -5.5 -13t-7 -14t-7.5 -11t-10.5 -11.5t-12.5 -6.5q-20 -11 -26 -14h-33q-42 19 -71 50
q-78 79 -232 233l-229 229l223 223t231 232q3 2 14 13t15.5 14.5t14 11t17.5 11.5t17 7z" />
    <glyph glyph-name="dingdanguanli1" unicode="&#xe60b;" 
d="M381 896h260q18 -7 30.5 -22t11.5 -32q2 -26 -19 -43.5t-46 -14.5q-177 -2 -222 1q-26 -1 -43 22t-8 48q1 9 6 15.5t16.5 15t13.5 10.5zM55 844q17 11 40 16t36 6t45.5 0t38.5 -1q18 5 27.5 -9.5t5 -32t-19.5 -21.5q-19 -2 -56.5 -2t-56.5 -2q-20 -4 -33.5 -21t-13.5 -38
v-349.5v-350.5q1 -12 0 -23t1.5 -23.5t9.5 -21.5q9 -15 26.5 -23t32 -9.5t36.5 -1.5q557 0 683 -1q5 1 16.5 1t18 0.5t16 2t17 5t13.5 9.5q8 8 12 19.5t4.5 18t1 24.5t0.5 20v341.5v341.5q3 54 -28 71q-22 10 -66 11t-59 4q-13 6 -20 18.5t1 25.5q6 7 16.5 11.5t16 5
t22.5 0.5h18q3 0 18 -0.5t20 -1t17.5 -2t19.5 -3.5t16.5 -5.5t17.5 -9.5q43 -22 58 -86v-775q-6 -40 -30 -71q-25 -26 -88 -40h-785q-74 11 -100 58q-15 24 -21 56v772q13 65 55 86v0zM251 608q89 2 238 1.5t238 0.5q13 -2 25.5 -0.5t26 -2.5t20.5 -15q11 -17 -2 -34
t-32 -13q-86 -1 -248 -0.5t-247 -0.5q-16 -2 -30 3.5t-16 19.5q-5 13 4 26t23 15zM247 430q89 3 238.5 2t238.5 0q12 -1 22 0t22 -0.5t21 -6.5q13 -6 14 -23t-10 -26q-5 -6 -13.5 -7.5t-16 -1t-15.5 -0.5q-58 0 -249 -0.5t-249 1.5q-17 1 -23.5 15.5t-0.5 29t21 17.5z
M251 239q91 2 246.5 1.5t246.5 0.5q40 5 57 -22q7 -17 -5.5 -32t-30.5 -11q-86 -1 -248 -0.5t-247 -0.5q-35 -3 -45 18q-8 14 1 29t25 17z" />
    <glyph glyph-name="mima" unicode="&#xe60c;" 
d="M481 896h62q92 -18 138 -52q42 -29 70 -71.5t33 -91.5q2 -29 3 -59.5t0.5 -73.5t-0.5 -59q7 -1 24.5 -2t30 -3.5t23.5 -7.5q22 -10 37.5 -30.5t20.5 -46.5v-440q-7 -33 -30.5 -57t-56.5 -30h-648q-33 7 -57 31t-30 56v440q5 26 20.5 46.5t37.5 30.5q11 5 23.5 7.5t30 3
t24.5 1.5q1 25 -0.5 76t1 90.5t12.5 74.5q26 69 90 113.5t141 53.5zM486 774q-49 -7 -87 -39t-42 -78q-1 -17 -0.5 -85.5t0.5 -85.5h310q0 13 0.5 80.5t-0.5 80.5q-3 35 -11 50q-25 43 -73 64.5t-97 12.5zM449 315q-34 -19 -49 -58.5t-2 -77.5q2 -11 9 -21.5t13.5 -17
t18.5 -17t17 -15.5q2 -6 5 -41t20 -47q17 -16 42 -10.5t34 27.5q4 10 5.5 22t2.5 27.5t2 22.5q38 23 56 60q12 29 7.5 62t-24.5 57q-27 35 -73.5 43t-83.5 -16z" />
    <glyph glyph-name="yifahuo" unicode="&#xe60e;" horiz-adv-x="1168" 
d="M96 896h789q29 -6 52.5 -24t33.5 -45q7 -21 7 -77v-267.5v-267.5h-44q1 459 1 474q-1 92 -2 104q-8 32 -42 52q-7 4 -15.5 5.5t-21 1.5t-17.5 1q-389 -1 -704 0q-37 6 -65.5 -23.5t-23.5 -66.5q-1 -82 -0.5 -364.5t-0.5 -365.5q2 -48 9 -63q21 -35 50 -42q13 -2 52 -3
q35 1 268.5 1h268.5v-44h-309.5h-266.5q-32 -1 -61 16t-43 47q-5 13 -11 46v796q7 36 12 48q11 24 33.5 39.5t50.5 21.5zM457 634q6 4 15 5.5t16.5 0.5t15.5 0h128h128q15 3 29 -15q4 -5 5.5 -11t1.5 -15.5v-12.5v-127.5v-128.5v-10.5t-0.5 -12t-2.5 -10.5t-5 -10
q-6 -8 -15.5 -10.5t-23.5 -2.5t-19 -1q-1 -85 -2 -100q-1 -11 -9 -19t-19 -9q-10 -1 -53 -3l-2.5 -4.5t-3.5 -5.5t-3 -5t-3.5 -5.5t-3.5 -4t-4 -4t-5 -3.5t-5.5 -3t-5.5 -1q-19 -6 -36.5 5.5t-22.5 31.5q-87 1 -167 0q-5 -11 -9 -17t-11.5 -12.5t-16.5 -7.5
q-19 -5 -35.5 6.5t-24.5 30.5q-13 1 -25.5 -0.5t-26.5 1.5t-22 13q-4 4 -6 10t-2 10t-0.5 12t-0.5 11q-1 67 0 102q-1 11 11 33q26 41 73.5 117.5t64.5 102.5q13 18 15 20q11 4 24 5.5t24.5 1t24.5 0.5v10t0.5 12.5t2 10.5t4.5 11t8 8zM476 591v-140.5v-140.5h90.5h106h90.5
v146.5t-1 146.5l-3 3q-47 1 -127 1h-128q-5 -1 -13 0t-13 -2.5t-2 -13.5zM389 545q-24 -37 -68.5 -108t-64.5 -104q-2 -3 -6.5 -10t-7.5 -12.5t-4 -10.5q-2 -79 2 -117q0 -5 8.5 -3.5t10.5 -0.5q6 0 25 1q10 1 24 12t23 12q20 3 49 -24q130 -2 165 0q11 0 26 12.5t25 12.5
q7 1 14.5 -1.5t11.5 -5.5t11 -9t10 -9q6 0 53 -1v95h-101h-101h-10t-11 0.5t-9.5 2.5t-8.5 6q-3 2 -5 5t-3.5 6.5t-2 5.5t-1 7t-0.5 6.5v7.5v7v100v117h-54zM371 438h28v-141h-76v31h23.5h24.5v53v57zM1140 153q11 3 19.5 -5t5.5 -19q-9 -14 -45 -50q-12 -11 -33.5 -34
t-32.5 -34q-13 -13 -61.5 -63.5t-76.5 -75.5h-9q-15 10 -39.5 33t-27.5 26q-9 9 -39 35.5t-45 42.5q-7 6 -4.5 17.5t11.5 14.5q15 2 32 -14q64 -61 117 -108q31 34 99 103.5t102 106.5q20 19 27 24z" />
    <glyph glyph-name="yifukuan" unicode="&#xe60f;" horiz-adv-x="1171" 
d="M96 896h791q52 -11 75 -49q5 -5 8 -12.5l5 -12.5t3 -15.5t1.5 -14t1 -16t0.5 -13.5q-1 -106 -1 -275v-275h-21h-22v462v37v44t-2 36q-8 33 -42 53q-7 4 -15.5 5.5t-21 1.5t-17.5 1q-390 -1 -706 0q-37 6 -65.5 -23.5t-23.5 -66.5v-366t-1 -366q2 -49 9 -63q22 -35 50 -43
q14 -2 52 -2h539v-13.5v-16v-13.5h-578q-29 -2 -55.5 12t-41.5 39q-5 6 -8 14t-4 13t-3 16t-3 15v798q7 36 12 48q11 24 34 39.5t50 21.5v0zM362 601q14 7 32 -14q10 -11 44.5 -52.5t54.5 -63.5q14 16 49 57.5t55 62.5q12 11 27.5 2t11.5 -25q-5 -10 -12.5 -20t-18 -21
t-15.5 -18q-5 -6 -31.5 -36.5t-38.5 -48.5h58t58 -1q14 0 18 -15q4 -10 -2 -20.5t-17 -11.5q-8 0 -117 -1v-49q9 0 60.5 0.5t59.5 -1.5q16 -4 17.5 -21.5t-13.5 -23.5q-2 -3 -61.5 -2.5t-61.5 0.5q-1 -56 -2 -66q-4 -16 -22 -16.5t-23 14.5q-2 10 -3 67q-14 1 -58.5 0.5
t-59.5 0.5q-10 -1 -17.5 8t-4.5 19q5 18 19 20q18 1 38 1.5t45.5 0t38.5 -0.5v25v24q-4 0 -58.5 -0.5t-57.5 0.5q-12 1 -20.5 11t-4.5 22q9 18 25 16q22 2 65.5 2.5t48.5 0.5q-20 24 -59.5 69.5t-58.5 67.5q-7 9 -3.5 21.5t15.5 15.5zM1132 147q6 6 15 7.5t15 -5.5
q6 -8 4 -17.5t-9 -15.5q-57 -58 -178 -183q-4 -5 -14.5 -16.5t-16.5 -17.5t-15.5 -14t-18.5 -13h-2q-11 5 -33 25q-9 8 -42 38.5t-51 47.5q-24 21 -31 31q-6 6 -2.5 16t11.5 12q2 3 7.5 1t6.5 -2t6 -4t6 -4q17 -16 58.5 -54t64.5 -58q37 37 109.5 112.5t109.5 113.5z" />
    <glyph glyph-name="fanhuijiantou" unicode="&#xe610;" 
d="M30 413l238 238l244 244l237.5 -237.5t220.5 -219.5q30 -31 36 -40v-6q0 -1 -2.5 -4.5t-3.5 -4t-4 -3.5t-4.5 -2t-5.5 0q-7 4 -13.5 9.5t-15 14.5t-11.5 12l-417 417v-480v-479h-34v479v480l-190 -190t-251 -252q-13 -12 -23 -11q-3 2 -13 13v7q3 7 12 15v0z" />
    <glyph glyph-name="guanbi1" unicode="&#xe611;" 
d="M29 896h25q33 -27 63 -57q183 -183 396 -395q29 30 136.5 138t177.5 177.5t139 136.5h24q18 -8 26.5 -23.5t1.5 -32.5q-9 -14 -21 -27.5t-29.5 -30t-25.5 -24.5q-286 -286 -371 -372q69 -70 202 -203l148 -148q8 -8 32 -31t39.5 -40t27.5 -35q4 -16 -4 -31.5t-23 -19.5
q-6 -3 -12.5 -3t-11.5 1.5t-11 5.5t-10 7.5t-9.5 8.5t-8.5 8q-402 401 -420 419q-164 -162 -434 -434q-19 -19 -46 -15q-15 4 -30 30v24q66 68 141 143l168.5 168.5t142.5 141.5q-80 81 -416 416q-19 19 -36 43v27q17 17 29 27z" />
    <glyph glyph-name="xiajiantou" unicode="&#xe612;" horiz-adv-x="1844" 
d="M435 546h967v-3q-83 -88 -242.5 -266.5t-240.5 -265.5q-81 86 -240.5 264.5t-243.5 267.5v3z" />
    <glyph glyph-name="wenjianjia" unicode="&#xe613;" horiz-adv-x="1182" 
d="M139 896h303q74 -64 150 -140q37 -37 57 -51q24 -5 146.5 -3.5t146.5 1.5h19t23 -1l18 -3t20.5 -6.5t15.5 -12.5q10 -9 15 -23t6 -24.5t1.5 -29t1.5 -26.5q61 -6 76 -10q33 -16 39 -46q2 -27 0 -57q-53 -483 -55 -496q0 -2 -1 -6q-7 -53 -27 -71q-9 -9 -20.5 -12
t-32.5 -3.5t-23 -0.5h-755q-16 0 -46.5 -0.5t-55 0t-46.5 1.5q-21 4 -37 19.5t-18 35.5q-4 23 -7 49.5t-5.5 58.5t-5.5 50q-3 33 -17.5 176t-24.5 219v30q6 26 28 42t50 21q1 34 0.5 131t2.5 131q6 39 58 57zM128 824q-1 -37 -0.5 -125t0.5 -125h883q-1 51 -2 64
q-6 18 -37 15h-172t-172 1q-20 20 -62.5 60t-62.5 61q-6 5 -34 32.5t-46 38.5q-64 1 -265 0q-12 4 -21 -3.5t-9 -18.5zM67 523q-12 -2 -16 -14.5t0 -24.5q10 -98 28.5 -278.5t25.5 -248.5q-1 -13 6 -24t20 -11q104 -1 443 -1h444q6 -1 15 0t17 2t13.5 6.5t6.5 14.5
q11 102 32 290t29 263q3 13 -7.5 22t-23.5 6h-468.5h-467.5q-80 0 -97 -2v0z" />
    <glyph glyph-name="zhuzhuangtu" unicode="&#xe614;" horiz-adv-x="1138" 
d="M993 896h145v-114q-78 1 -100 -1q-5 1 -10.5 -1t-8 -4t-8 -7.5t-7.5 -6.5q-33 -35 -99 -100.5t-96 -96.5q-26 -28 -77.5 -79.5l-61.5 -61.5q-41 41 -115 122.5t-86 94.5q-151 -136 -418 -374q-20 24 -36 42q93 83 459 410q35 -40 101 -112.5t94 -103.5q67 66 132 132
q25 27 51.5 54t67 67t52.5 52q2 2 7 7.5t8 9.5t5 9q1 9 1 62zM1007 512h116q1 -71 1 -320v-320h-117v320v320zM671 310h117v-219v-219h-117v219v219zM339 242h116v-185v-185h-117q1 41 0.5 185t0.5 185zM0 108h117v-118v-118h-117v236z" />
    <glyph glyph-name="xiajiantou1" unicode="&#xe615;" horiz-adv-x="1853" 
d="M424 604h14q21 -14 52 -45l451 -451q194 192 467 467q19 20 41 29h17q23 -19 30 -41v-3q-7 -12 -17.5 -25t-16 -19t-22.5 -22.5t-19 -19.5q-82 -81 -241.5 -240.5t-238.5 -237.5q-85 85 -257 256.5t-259 257.5q-24 24 -35 43v25q24 19 34 26z" />
    <glyph glyph-name="shangjiantou" unicode="&#xe616;" horiz-adv-x="1841" 
d="M932 667q77 -76 235 -235t240 -240q33 -34 40 -54v-3q0 -1 -3.5 -7t-5 -8.5t-5 -6.5t-7 -6.5t-7.5 -4.5q-5 -2 -10.5 -2t-9.5 1.5t-9 5t-7.5 6t-7.5 7t-8 6.5q-249 251 -435 436q-69 -70 -213.5 -214.5l-219.5 -219.5l-9.5 -9.5t-11.5 -10.5t-11.5 -5.5t-15.5 -1.5
q-17 -1 -33 27v22q93 96 268.5 271t245.5 246z" />
    <glyph glyph-name="kucunguanli" unicode="&#xe617;" 
d="M503 896h18q103 -77 439 -327q5 -4 16.5 -12.5t17.5 -13t15 -12.5t15 -16v-25q-17 -31 -40 -30q-7 2 -14 5.5t-15.5 9.5t-12.5 8q0 -429 1 -529q0 -1 -0.5 -23.5t-2.5 -33.5q-4 -8 -21 -25h-21q-14 9 -23 19q-4 6 -4 18.5t-1 20.5q0 417 1 580q0 2 -0.5 15t-5.5 17
q-11 10 -24 19.5t-29 21t-25 18.5q-42 31 -134 99.5t-141 104.5q-158 -117 -347 -259q-2 -108 -1.5 -306t-0.5 -307q3 -39 -26 -61h-21q-13 9 -22 19q-5 6 -5 18.5v20.5v278.5t-1 278.5q-4 -2 -16.5 -10.5t-21.5 -12.5t-19 -5q-16 8 -31 31v25q21 21 69 56q44 33 434 325z
M254 498q45 5 104 2q24 -2 26 -19q4 -47 1 -121q-2 -20 -14 -22q-69 -12 -125 -1q-15 3 -13 30q-3 71 1 118q5 12 20 13zM251 287q26 3 84 2h9.5t11.5 -0.5t10 -2t10 -4.5q5 -3 6.5 -8t2 -13t0.5 -10q3 -62 0 -106q-4 -17 -14 -19q-49 -4 -118 -1q-18 0 -19 15q-6 67 0 133
q1 10 17 14zM445 274q3 13 33 14q6 0 27.5 0.5t31 0.5t26 -1.5t29.5 -4.5q9 -74 4 -131q-1 -10 -11 -28h-64t-63 1q-4 1 -6.5 3t-4.5 5t-3 5.5t-1.5 7.5t-1 6.5t-0.5 7v6.5q0 11 -1.5 33.5t-0.5 40.5t6 34zM251 75q58 6 116 0q16 -2 17 -20q4 -51 1 -118q0 -12 -9.5 -19.5
t-20.5 -4.5q-54 -2 -102 0q-18 1 -19 15q-6 67 0 134q1 10 17 13zM445 62q3 13 33 15q6 0 27.5 0.5t31 0.5t26 -1.5t29.5 -5.5q9 -73 4 -130q-1 -10 -11 -28q-13 0 -63.5 -0.5t-63.5 1.5q-4 1 -6.5 2.5t-4.5 5t-3 5.5t-1.5 7t-1 6.5t-0.5 7v6.5q0 11 -1.5 34t-0.5 41t6 33z
M670 75q75 7 132 -4q12 -79 4 -138q-3 -17 -15 -18q-57 -5 -122 -1q-13 1 -15 17q-5 49 -2 118q2 24 18 26z" />
    <glyph glyph-name="zuojiantou1" unicode="&#xe618;" 
d="M741 892q23 -22 53 -53q-81 -82 -234.5 -235t-222.5 -222q176 -175 456 -456q-9 -8 -27 -25.5t-26 -25.5q-163 161 -509 508q68 67 510 509z" />
    <glyph glyph-name="ditu" unicode="&#xe619;" horiz-adv-x="1205" 
d="M959 896h39q42 -9 59 -18q52 -24 82 -75.5t27 -108.5q1 -44 -37 -120q-25 -50 -74.5 -152.5t-75.5 -153.5q-16 30 -43 86.5t-38 77.5q-13 28 -43 88.5t-45 92.5q-26 54 -16.5 116.5t49.5 106.5q47 50 116 60zM965 816q-47 -5 -76 -47q-30 -39 -20.5 -93t53.5 -78
q35 -24 79.5 -14.5t67.5 44.5q31 40 18 102q-9 41 -45 67t-77 19zM226 502q26 -27 76 -79.5t74 -77.5q36 24 111 77t115 80q40 -27 115 -80t111 -77l19 19q3 -9 13 -26.5t14.5 -31.5t3.5 -28q-2 -22 6 -64q6 -32 46 -239q7 3 173 90q-1 2 -56 117q0 2 -4 10.5t-4.5 11
t0.5 11.5q3 8 38 79q23 -45 65 -133.5t63 -129.5v-2q-136 -69 -300 -157h-3q-51 27 -146 77t-135 71q-20 11 -31 3q-161 -83 -287 -151h-4q-121 65 -299 157v1q34 70 109.5 229t116.5 243zM421 282q-7 -3 -10.5 -9t-5.5 -18t-3 -14q-6 -37 -22.5 -122t-24.5 -131
q20 11 93.5 49.5t114.5 58.5q1 206 0 283q-26 -17 -73 -50t-69 -47zM642 379q-1 -169 0 -283q37 -18 106.5 -55t101.5 -53q-8 43 -24 127l-24 126q0 3 -1.5 12t-4.5 15t-8 9q-38 28 -146 102zM102 65q32 -18 92 -49t81 -42q8 44 25.5 136t27.5 139q0 3 1 9.5t1.5 10.5t-1 9
t-4.5 9q-22 25 -79 80q-61 -125 -144 -302v0z" />
    <glyph glyph-name="sousuo1" unicode="&#xe61c;" 
d="M400 896h77q146 -18 242 -104q70 -58 112 -142t46 -175q7 -81 -19.5 -160.5t-79.5 -146.5q28 -30 115.5 -115.5t130.5 -136.5v-19q-10 -15 -26 -25h-15q-10 9 -20.5 17.5t-22 20t-19 18.5t-21 21t-18 19t-20.5 22t-18 20q-21 22 -61 61.5t-49 48.5q-116 -102 -251 -113
q-119 -14 -232 41t-178 157q-56 82 -73 207v76q8 55 25 112q45 124 148 204q89 74 227 92zM408 828q-69 -5 -134 -38q-74 -35 -126.5 -103t-73.5 -151q-23 -101 10.5 -204.5t112.5 -170.5q59 -50 133.5 -74t148.5 -14q95 10 175.5 68t120.5 144q48 98 34.5 210t-81.5 196
q-58 71 -144.5 109t-175.5 28z" />
    <glyph glyph-name="yixuan" unicode="&#xe61d;" horiz-adv-x="1476" 
d="M1193 726q9 3 18.5 -0.5t14 -6.5t14.5 -14t11 -12v-28q-16 -20 -35.5 -40t-46.5 -46.5t-38 -37.5l-183 -183l-240 -240q-9 -9 -25.5 -27t-30.5 -31.5t-29 -23.5h-32q-53 49 -150 143.5t-141 135.5q-40 40 -50 62v14q14 31 31 38q26 12 51 -9q26 -21 68.5 -64.5
t57.5 -57.5q77 -71 149 -145q357 356 528 529q37 35 58 44z" />
    <glyph glyph-name="shezhi" unicode="&#xe61e;" 
d="M453 896h113q28 -15 33 -31q5 -18 10.5 -56.5t10.5 -57.5q1 -3 2.5 -6t5.5 -5.5t5 -3.5t6.5 -4.5l5.5 -3.5q27 -14 49 -7q17 9 47.5 32.5t46.5 32.5q29 12 46 -4q40 -32 70 -67q22 -24 10 -51q-10 -18 -33 -49t-32 -47q-8 -20 5 -49q10 -20 21 -24q20 -5 57.5 -10.5
t54.5 -9.5q28 -8 37 -44v-91q-8 -27 -22 -36q-21 -9 -65 -15.5t-63 -13.5q-16 -9 -28 -46q-3 -11 0.5 -21.5t14 -24t12.5 -17.5q4 -6 18.5 -24t20.5 -32t5 -30q0 -3 -1 -6.5t-3.5 -7t-4 -6t-5 -6.5t-4.5 -5q-44 -47 -69 -63q-16 -9 -32 -4q-21 8 -57.5 36t-59.5 36
q-38 -2 -59 -32q-5 -19 -10.5 -56t-10.5 -55q-11 -30 -33 -34q-43 -5 -101 -2q-14 1 -26 9.5t-16 21.5q-5 18 -10.5 54.5t-10.5 53.5q-5 26 -49 37q-12 4 -23.5 -0.5t-25.5 -16t-19 -13.5q-6 -4 -16.5 -12t-16.5 -12t-17.5 -10t-18.5 -5.5t-20 1.5q-13 7 -24.5 17t-27.5 27
t-21 22q-25 22 -18 49q7 22 35 58t36 56q0 40 -24 60q-21 8 -62 14t-60 12q-21 7 -32 32v108q12 29 38 36q15 4 54.5 10t59.5 14q16 13 23 33t0 37q-9 17 -31.5 47.5t-31.5 46.5q-7 12 -6 26.5t11 23.5q40 47 72 71q21 18 54 -3q11 -6 40.5 -27.5t47.5 -31.5q13 -7 40 5
q27 10 33 29q4 15 9.5 55.5t14.5 61.5q4 5 25 24zM468 850q-9 -2 -12 -10q-5 -18 -10.5 -56.5t-10.5 -56.5q-2 -6 -6 -12t-7.5 -9.5t-10.5 -7.5t-10.5 -5.5t-12.5 -5.5t-11 -4q-33 -15 -58 1q-10 7 -44 31t-53 34q-33 -23 -75 -75q9 -15 33.5 -49t35.5 -53q14 -40 -24 -96
q-22 -17 -73 -24.5t-63 -11.5q-12 -5 -12 -30q0 -49 3 -68q2 -10 16 -14q17 -4 50 -9t48 -8q26 -6 37 -26l8.5 -17t7 -15.5t6 -18t1 -17t-4.5 -17.5q-9 -18 -32.5 -50t-32.5 -48q-2 -8 0.5 -13t10 -12.5t8.5 -9.5q4 -3 14.5 -14t19 -18t17.5 -11q21 7 59.5 37t65.5 35
q17 -4 26.5 -6.5t24 -8.5t24 -15t13.5 -22q6 -18 11 -53t10 -52q-1 -8 5 -13t14 -6q47 -2 81 2q10 1 12 10q4 13 10.5 58t17.5 67q44 44 93 36q23 -10 60.5 -36t54.5 -35q12 11 36 34.5t37 35.5q-9 23 -35 58.5t-34 48.5q-7 13 0 44q8 36 30 56q23 14 72 21t67 14v103
q-21 8 -63.5 14.5t-55.5 9.5q-22 5 -34 29q0 1 -5 11.5t-6.5 13.5t-4.5 12t-3.5 13.5t0 12t2.5 14.5q8 20 32.5 52.5t30.5 41.5q8 16 -1 25q-10 11 -66 64q-20 -12 -55.5 -36.5t-48.5 -32.5q-21 -13 -58 3q-41 15 -51 42q-6 20 -11.5 58.5t-10.5 54.5q-2 11 -17 12
q-45 3 -82 -1zM475 638q66 9 128.5 -21.5t99.5 -85.5q41 -60 40.5 -136.5t-43.5 -135.5q-40 -62 -113.5 -90t-144.5 -9q-66 15 -116 65.5t-64 117.5q-13 54 1 111t51 99q29 36 71.5 58.5t89.5 26.5zM491 597q-66 -2 -120 -46.5t-67 -108.5q-16 -66 14.5 -131t91.5 -94
q65 -35 142.5 -14t116.5 85q29 43 31.5 98t-21.5 101q-27 52 -79 83t-109 27z" />
    <glyph glyph-name="yijiesuan" unicode="&#xe61f;" horiz-adv-x="1171" 
d="M96 896h791q29 -6 52.5 -24t33.5 -45q7 -21 8 -77q-1 -55 -1 -268.5v-268.5h-43v475q-1 94 -2 104q-8 33 -42 53q-7 4 -15.5 5.5t-21 1.5t-17.5 1q-387 -1 -706 0q-37 6 -65.5 -23.5t-23.5 -66.5v-366.5t-1 -365.5q2 -49 9 -63q21 -35 50 -43q14 -2 52 -2h539v-43h-273
h-305q-29 -2 -55.5 12t-41.5 39q-5 6 -8 14t-4 13t-3 16t-3 15v798q7 36 12 48q11 24 34 39.5t50 21.5zM205 691h91q9 -13 16.5 -29t15 -37t11.5 -32q140 0 169 -2q52 -1 149 -0.5t149 -0.5q7 0 11 -6t3 -13q-2 -15 -6 -29q-30 -104 -76 -230q-7 -17 -19 -37q-290 0 -345 -1
q-7 -1 -12.5 4.5t-5.5 12.5q-4 21 -28 186l-5 35t-7.5 45.5t-9.5 34.5q-11 30 -27 67q-3 0 -31 0.5t-43 1.5v15v15zM347 561q5 -29 12 -80.5t13.5 -94.5t12.5 -80h317q55 146 84 254h-114.5h-114.5q-93 4 -210 1zM430 204q22 5 43 -6.5t30 -32.5q10 -23 0.5 -46t-31.5 -34
q-26 -15 -56 -2t-37 42q-9 26 7.5 51t43.5 28zM435 174q-10 -1 -17.5 -9t-9.5 -18q-3 -14 7 -26t24 -13q16 -2 28.5 11.5t7.5 29.5q-3 13 -15.5 20.5t-24.5 4.5zM638 204q27 6 51.5 -13t23.5 -47q3 -26 -17 -47t-47 -19q-26 -2 -46.5 17.5t-19.5 45.5q-1 23 15.5 41.5
t39.5 21.5zM640 174q-15 -4 -24 -22q-7 -17 7.5 -32.5t32.5 -10.5q17 2 24.5 19.5t-3.5 30.5q-5 10 -15.5 13.5t-21.5 1.5zM1143 153q11 3 19.5 -5t5.5 -18q-9 -14 -46 -51q-11 -11 -32.5 -34t-32.5 -34q-14 -13 -62 -63.5t-77 -75.5h-9q-13 9 -36.5 31t-26.5 25
q-10 10 -41 37.5t-47 43.5q-8 7 -5 18t12 14q14 3 28 -10q83 -78 121 -111q31 33 99 102.5t103 107.5q19 19 27 23z" />
    <glyph glyph-name="jiesuandingdanguanli" unicode="&#xe620;" horiz-adv-x="1075" 
d="M89 896h736q28 -5 50 -22.5t31 -43.5q3 -11 4.5 -24t1.5 -21.5v-25.5v-23v-398q68 -28 106 -74q44 -50 56 -131v-45q-13 -97 -81 -156q-52 -48 -135 -60h-45q-59 9 -99 33q-12 7 -30 22.5t-27 21.5q-14 2 -58 2h-244.5h-244.5q-27 -2 -51.5 9.5t-39.5 33.5q-11 15 -19 58
v743q7 33 11 44q21 46 78 57zM93 853q-23 -8 -38.5 -29t-13.5 -45q-1 -113 -0.5 -346t-0.5 -346q1 -4 1 -13v-14.5t1.5 -12.5t5.5 -13q10 -19 28 -32t39 -11h256t257 1q-36 68 -31 131q3 65 41.5 122t98.5 83q57 27 134 20v208v209v13t-0.5 15.5t-2.5 13t-7 12.5
q-26 38 -59 36q-110 1 -334 0.5t-334 0.5q-37 -2 -41 -3zM815 300q-75 -7 -124 -64q-27 -32 -39 -73.5t-5 -82.5q9 -54 47 -97t91 -56q54 -16 110.5 3t90.5 64q37 45 40 106.5t-28 110.5q-28 46 -79 71t-104 18zM95 705q71 0 83 -1q10 -11 17 -25.5t14 -35t11 -28.5
q72 0 136 -3h143h143h5.5t7 -0.5t5.5 -1.5t5 -4q3 -9 2.5 -13t-3 -13.5t-3.5 -12.5q-23 -82 -71 -216q-5 -13 -17 -33q-265 0 -320 -1q-7 0 -12 5t-6 12q-8 47 -20 134.5t-18 121.5q-8 28 -33 86q-46 1 -68 3q-1 20 -1 26zM227 586q6 -37 17.5 -117t18.5 -122h295q3 9 13 36
t15 42q3 11 15.5 48t20 61.5t13.5 48.5q-65 0 -201 2t-207 1zM307 253q23 4 44 -10.5t25 -37.5q5 -27 -14.5 -49.5t-46.5 -20.5q-23 -1 -41.5 16.5t-17.5 40.5q-3 22 12.5 40.5t38.5 20.5zM309 224q-16 -1 -23 -17.5t3 -29.5q8 -15 27.5 -14t27.5 17q11 16 -3 33t-32 11z
M498 253q25 5 48 -12.5t22 -43.5q2 -22 -12.5 -40t-36.5 -21q-24 -6 -46 9.5t-26 40.5q-4 23 11.5 43t39.5 24zM500 224q-13 -3 -22 -19q-8 -15 6 -30.5t31 -10.5q15 2 22 18t-2 29q-5 9 -15 12.5t-20 0.5zM764 209q1 13 14.5 19t23.5 -3q9 -5 9 -24q1 -9 0.5 -58t0.5 -59
q13 0 61.5 0.5t61.5 -0.5q18 -2 19.5 -22t-15.5 -24q-18 -1 -144 -1q-10 -1 -19.5 3.5t-10.5 13.5q-2 46 -1 155z" />
    <glyph glyph-name="youjiantou" unicode="&#xe621;" 
d="M273 896h19q33 -10 78 -52q292 -294 459 -459v-2q-112 -110 -461 -461q-3 -2 -14 -12t-16.5 -14t-15 -10t-18.5 -8t-19 -1q-36 -2 -64 26t-22 63q0 9 1.5 17.5t8 18t9 13t13.5 15.5t12 13q189 188 343 343q-168 170 -348 348q-3 3 -10.5 11t-11.5 13t-9 12.5t-6 15.5
q-9 53 18 81q26 21 54 29z" />
    <glyph glyph-name="daiguihuan-dingdanguanli" unicode="&#xe622;" horiz-adv-x="1072" 
d="M89 896h734q48 -10 70 -45q3 -4 5 -7.5t3.5 -8t3 -8t2 -9t1.5 -8.5t1 -9.5v-8.5t0.5 -9t0.5 -8v-438q52 -23 73 -41q43 -34 69 -89q10 -24 20 -74v-46q-13 -84 -62 -136q-58 -66 -154 -79h-45q-69 11 -113 43q-6 4 -20 16t-23 17q-13 2 -57 3h-244.5t-244.5 -1
q-53 -2 -87 39q-14 18 -22 63v743q8 45 22 62q25 31 67 39zM40 777v-691q1 -4 1 -14t0.5 -17.5t3.5 -14.5q9 -21 28 -35.5t41 -13.5h513q-36 72 -31 131q2 66 41.5 123.5t100.5 83.5q52 26 131 18v208.5v209.5v13.5t-0.5 15.5t-2.5 12.5t-7 13.5q-26 37 -59 35h-679
q-32 5 -57.5 -20t-23.5 -58zM806 299q-41 -6 -70 -25q-51 -29 -76.5 -85.5t-12.5 -113.5q9 -55 50 -97.5t96 -53.5q61 -15 121 13.5t88 84.5q24 44 22 95t-28 93q-29 48 -82 73t-108 16zM186 737q13 13 19 20q53 -39 93 -82q-18 -16 -20 -17q-7 6 -21.5 20t-23.5 22
t-22 18.5t-25 18.5zM324 736h300v-28h-121q-2 -5 -7 -16.5t-7.5 -18t-4 -16t-1.5 -18.5q0 -41 0.5 -138t-0.5 -138q-3 -1 -28 -4v123.5t-1 123.5q-69 -92 -132 -133q-1 2 -4.5 6.5t-6.5 8t-3 7.5t5 7q114 83 161 206h-150v28zM525 641q70 -76 116 -150q-16 -11 -24 -17
q-40 64 -113 151l12 9t9 7zM176 584h105v-94v-85v-5v-6t1 -5.5t4 -4.5q2 -3 9 -10l10.5 -10.5t9.5 -9t11.5 -9t11.5 -6.5q31 -11 110 -12q35 0 64 -0.5t64.5 0t64.5 2.5q-6 -23 -7 -28q-29 0 -115 -0.5t-114 0.5q-79 5 -108 37q-3 3 -9.5 11t-13 11.5t-14.5 1.5
q-12 -7 -22 -18t-22.5 -29.5t-15.5 -23.5q-16 13 -22 18q15 22 22.5 32.5t23 25.5t30.5 23q1 19 1 165h-40.5h-38.5v29zM760 226q8 5 17.5 3.5t15.5 -7.5q3 -4 4 -21q1 -10 1 -57.5v-57.5q18 0 66.5 0.5t66.5 -0.5q13 0 19.5 -14t-3.5 -23q-4 -6 -9 -8t-16 -2h-12h-134
q-11 0 -19.5 8.5t-6.5 19.5q-1 49 0 131q-1 22 10 28z" />
    <glyph glyph-name="shouhuoguanli-dengdai" unicode="&#xe625;" horiz-adv-x="1075" 
d="M89 896h736q27 -5 49 -22t31 -42q6 -20 7 -84v-410q81 -33 119 -91q32 -43 43 -114v-45q-10 -69 -43 -113q-28 -43 -74 -69.5t-99 -33.5h-45q-48 8 -80 23q-24 11 -68 48q-5 5 -12 6.5t-16.5 1t-13.5 0.5h-260.5h-252.5q-27 -2 -51.5 9.5t-39.5 33.5l-6 10t-5 12.5t-3 11
t-3 13t-2 11.5v743q6 33 11 44q21 45 78 57v0zM91 853q-23 -10 -37.5 -30t-12.5 -44q-1 -56 -0.5 -352t0.5 -352q-5 -35 22.5 -62.5t62.5 -21.5h251.5t250.5 1q-36 67 -31 131q3 65 41.5 122t99.5 83q54 27 133 20v208v209v13t-0.5 15.5t-2.5 13t-7 12.5q-27 40 -61 36
h-334.5t-334.5 1q-38 -3 -40 -3zM815 300q-39 -4 -74 -23.5t-58 -51.5q-34 -43 -38 -101t24 -106q25 -47 74 -74t102 -24q44 2 84 24t64 59q32 45 33 103.5t-28 104.5q-28 46 -79 71t-104 18zM331 651q5 5 13.5 6t15.5 0t15 1q36 -1 119 -0.5t119 -0.5q14 3 27 -13
q4 -5 5 -10.5t1.5 -14.5t0.5 -12v-119.5v-119.5v-10t-0.5 -11t-2.5 -9.5t-5 -8.5q-6 -8 -14.5 -10.5t-21.5 -2.5t-18 -1q0 -80 -2 -94q-1 -9 -8.5 -16.5t-16.5 -8.5q-12 -1 -50 -3q-1 0 -3 -4l-2.5 -5t-3 -4.5t-3.5 -5l-3 -4.5t-4 -4t-4.5 -2.5t-5 -2.5t-5.5 -2
q-18 -5 -34 6t-21 29q-80 1 -155 0q-6 -11 -9 -16t-10.5 -11.5t-15.5 -7.5q-18 -5 -33.5 6t-21.5 29q-13 1 -25 -0.5t-24.5 1.5t-20.5 12q-3 4 -5 9.5t-2.5 9.5t-0.5 11v10q-1 63 0 95q-1 11 10 30q24 39 69 111t59 95q12 17 15 19q10 4 22 5t22.5 0.5t22.5 0.5q1 1 1 9.5
t0.5 12t1.5 9.5t4 10t8 7zM349 612q-1 -37 -0.5 -131t-0.5 -132h268v137.5t-1 136.5q-1 1 -2 3q-45 1 -119.5 0.5t-118.5 -0.5q-6 -1 -13 0t-11.5 -2t-1.5 -12zM267 569q-26 -42 -75.5 -120.5t-57.5 -92.5q-6 -7 -7.5 -17t-0.5 -18.5t0 -18.5v-25t0.5 -24.5t2.5 -24.5
q36 -2 50 3q1 0 13 8.5t19 11.5q20 4 48 -22q123 -2 154 0q10 -1 24 11t24 12q8 1 14.5 -1.5t17.5 -12l11 -9.5q5 -1 50 -2v89h-94.5h-94.5h-9.5t-10 0.5t-8.5 2.5t-8 6q-3 2 -5 4.5t-3 5.5t-2 5.5t-1 7t-0.5 6t-0.5 6.5v6q0 26 0.5 95.5t-0.5 107.5h-50zM251 469h26v-132
q-36 1 -72 0v29h21.5h24.5v51.5v51.5zM764 209q1 13 14.5 19t23.5 -3q9 -5 9 -24q0 -1 1 -117q10 0 61.5 0.5t61.5 -0.5q18 -2 19.5 -22t-15.5 -24q-26 -2 -144 -1q-10 -1 -19.5 3.5t-10.5 13.5q-3 50 -1 155z" />
    <glyph glyph-name="yonghuming" unicode="&#xe626;" 
d="M479 896h66q77 -13 116 -46q36 -28 54 -72t12 -90q-1 -9 -3.5 -29t-3 -29t0.5 -29q5 -16 6.5 -22.5t4 -20t1.5 -24.5t-5 -21q-4 -11 -19.5 -25.5t-20.5 -22.5q-3 -9 -9 -29.5t-11 -30.5q-5 -12 -20.5 -35t-20.5 -36q-6 -32 2 -64.5t30 -55.5q14 -16 35 -30.5t34.5 -21
t41.5 -18.5q132 -54 178 -79q53 -31 76 -64v-129h-1024v129q23 31 55 51q23 15 52 29.5t50 23t56.5 23t52.5 21.5q3 1 7 3q25 12 38.5 19.5t32 21.5t29.5 30q38 52 23 114q-4 9 -24.5 42t-25.5 53l-3.5 14t-5.5 16.5t-8 11.5q-13 12 -18 17.5t-12 17.5t-8 24q1 11 -0.5 14
t1.5 14.5t4 14.5t5 14t5 14q1 17 -4 47.5t-5 43.5q-5 44 13 86t53 69q39 33 116 46z" />
    <glyph glyph-name="dingdanguanli-dengdaichuli" unicode="&#xe627;" horiz-adv-x="1075" 
d="M89 896h736q27 -5 49 -22t31 -42q6 -20 7 -84v-410q73 -30 109 -78q42 -51 53 -127v-45q-11 -74 -50 -123q-29 -38 -72.5 -62t-93.5 -31h-45q-76 12 -123 50q-4 3 -14.5 12.5t-16.5 13.5q-9 2 -48 3h-244.5t-244.5 -1q-43 -1 -69 13q-33 21 -44 49q-5 17 -9 40v743
q8 45 22 62q25 31 67 39zM41 779q-1 -50 -0.5 -352t0.5 -352q-5 -35 23 -62.5t62 -21.5h251t251 1q-30 61 -31 107q-4 86 48 155q37 52 99.5 77t126.5 17v203.5v203.5q0 39 -2 49q-8 22 -27.5 37.5t-41.5 13.5h-681q-31 5 -55.5 -20t-22.5 -56v0zM815 300q-42 -4 -77 -25
q-47 -28 -73 -79.5t-19 -105.5q5 -54 40.5 -98.5t87.5 -61.5q57 -21 118 -2t96 68q34 44 38 102t-24 106q-27 49 -79.5 76.5t-107.5 19.5zM322 603q0 8 7.5 14t16.5 6q7 -1 21 -14q9 -11 41 -49.5t50 -58.5q15 16 46 52.5t48 55.5q6 8 16.5 8.5t17.5 -7.5q6 -6 5.5 -15.5
t-7.5 -15.5q-15 -19 -49.5 -59t-51.5 -63h54.5t54.5 -1q13 0 17 -14q4 -9 -2 -19t-17 -10q-11 -1 -108 -2v-45q7 0 56 0.5t56 -1.5q15 -4 16.5 -20.5t-13.5 -21.5q-5 -3 -57.5 -2.5t-57.5 0.5q0 -51 -1 -62q-4 -14 -21 -14.5t-21 13.5q-2 9 -2 63q-13 0 -55 -0.5t-55 0.5
q-10 0 -16.5 8t-4.5 18q5 17 17 18q7 0 114 1v22.5v22.5h-54t-54 1q-17 1 -23 17q-2 3 -0.5 8t2.5 7t4 6.5t5 6.5q39 -1 121 0q-56 65 -106 122q-12 13 -10 24zM773 223q8 12 24 9t18 -17q2 -3 1.5 -63t-0.5 -63q14 0 62 0.5t62 -0.5t20 -14.5t-3 -23.5q-5 -9 -24 -9
q-26 -1 -131 -1q-11 -1 -21 3.5t-11 14.5q-2 5 -2 59v60q1 8 0.5 15t0.5 15.5t4 14.5z" />
    <glyph glyph-name="youjiantou1" unicode="&#xe62a;" 
d="M357 729q254 -253 345 -345q-193 -194 -346 -346q-30 28 -36 35v1q179 178 310 310l-153 153t-155 156q27 28 35 36z" />
    <glyph glyph-name="dingdanchaxun" unicode="&#xe62c;" 
d="M489 896h46q87 -5 162 -35q132 -51 220 -164q73 -95 97 -210q6 -29 10 -80v-46q-4 -68 -23 -128q-33 -109 -109 -192q-54 -61 -126 -102t-151 -57q-30 -6 -80 -10h-46q-111 6 -206 54q-139 69 -216 205q-31 53 -48 113q-13 47 -19 117v46q5 63 16 105q23 90 78 167
q62 88 154 144q109 66 241 73zM355 582q-14 -4 -23.5 -17.5t-8.5 -28.5v-159t1 -159q-1 -17 12 -30.5t30 -13.5h168l-8.5 8.5t-7.5 8.5q-6 4 -7 4q-22 1 -73 0.5t-73 0.5q-8 -1 -14.5 6t-5.5 16v159v159q1 14 3 16q7 11 18 10h97.5h96.5q1 -11 0.5 -50.5t0.5 -50.5
q1 -16 14 -27.5t29 -11.5h42.5h43.5v-6v-9q8 -6 21 -14q0 33 -1 39q-1 3 -3 6.5t-4 6t-5.5 6t-4.5 5.5q-71 76 -113 121q-8 8 -13 6h-183q-22 0 -29 -1zM399 486v-21h53.5h53.5q0 1 1 21q-20 1 -53.5 0.5t-54.5 -0.5zM399 422v-21q20 -1 53.5 -1h53.5q0 1 1 21
q-20 1 -53.5 1h-54.5zM618 400q-37 -2 -67.5 -27t-39.5 -61q-9 -28 0 -62q9 -30 31.5 -52.5t52.5 -30.5q35 -10 74 5q32 13 53 42.5t22 63.5q0 36 -17 64t-47 44t-62 14zM399 357v-21q9 -1 47.5 -0.5t48.5 -0.5q0 1 11 22h-53h-54zM399 292v-21h43h43v21h-43h-43zM717 175
q8 -8 23 -22.5t22 -22.5q11 -10 14 -13q4 -2 9 0.5t5 7.5q1 5 -8 14q-8 8 -24.5 25t-25.5 25q-5 -5 -15 -14zM582 544q15 -15 42 -44t34 -37q9 -9 18 -19q-15 -1 -70 -1q-9 -1 -16.5 5.5t-7.5 15.5v80zM613 378q26 4 51 -7t40 -32q17 -23 18.5 -53.5t-14.5 -54.5
q-15 -24 -38 -36q-25 -13 -55 -10t-51 21q-23 18 -32 48t1 58q8 26 30 44.5t50 21.5zM573 336h63v9v11q-37 5 -63 -20zM551 292q-1 -7 0 -21h85v21h-85z" />
    <glyph glyph-name="dingdanguanli1" unicode="&#xe62d;" 
d="M489 896h46q132 -7 241 -73q113 -68 178 -180q33 -56 51 -119q13 -47 19 -117v-46q-4 -68 -23 -128q-33 -109 -109 -192q-54 -61 -126 -102t-151 -57q-29 -6 -80 -10h-46q-68 4 -128 23q-117 36 -204 120q-101 96 -139 233q-13 46 -18 113v46q4 42 7 63q15 93 66 177
q46 78 118 136t159 87q65 22 139 26zM401 632q-21 -11 -24 -37q4 0 11 -0.5t9 -0.5q4 11 5 13q7 10 18 9h97.5h96.5q1 -11 0.5 -51t0.5 -50q1 -16 14 -27.5t28 -11.5h43.5h43.5v-108.5v-108.5v-7.5t-1 -9.5t-4 -7q-6 -6 -11 -7h-48q-1 -4 -1 -11v-10q29 -2 48 0
q15 1 26.5 14t11.5 28v110.5v110.5q1 20 -9 30q-7 7 -52.5 56t-69.5 75q-8 8 -13 6h-189q-23 0 -31 -5zM309 572q-17 -1 -29 -15.5t-11 -31.5q1 -44 0.5 -169.5t0.5 -169.5q-1 -17 11.5 -30.5t29.5 -13.5q254 -1 302 0q18 -1 31 12t14 31q0 28 -0.5 110t0.5 111q0 18 -8 27
q-18 19 -59 63.5t-63 68.5q-6 6 -9 7q-6 1 -29.5 1h-30.5h-75t-75 -1zM636 598q15 -15 41.5 -43.5t34.5 -37.5q10 -10 18 -20h-70q-9 -1 -16.5 5.5t-7.5 15.5v80zM304 550q1 0 18 1h92h93q0 -13 -0.5 -48.5t0.5 -48.5q0 -17 13 -30t30 -13h43h43v-226q1 -13 -12 -20
q-1 -1 -14 -2h-145.5h-145.5q-15 1 -16 2q-13 7 -12 19v172v172q-2 16 13 22zM345 465v-22h108v22h-108zM345 400v-21h108v21h-108zM345 335v-21h237v21q-119 1 -237 0zM345 271v-22h237v22h-237zM528 533q15 -15 41.5 -43.5t34.5 -36.5q10 -10 18 -20q-7 0 -70 -1
q-9 -1 -16.5 5.5t-7.5 15.5v80z" />
    <glyph glyph-name="xinjiandailiren" unicode="&#xe634;" 
d="M484 896h56q98 -7 180 -44q106 -46 187 -142q74 -90 102 -201q7 -29 15 -97v-56q-6 -88 -39.5 -169.5t-91.5 -144.5q-108 -121 -267 -157q-24 -6 -86 -13h-56q-96 7 -177 43q-101 43 -177 128t-108 191q-13 42 -22 122v56q8 68 15 97q28 111 103.5 202t180.5 139
q85 39 185 46zM426 694q-13 -4 -19.5 -17t-2.5 -25q3 -12 14.5 -19t23.5 -5h64t63.5 1t19 12t6.5 23q-1 13 -11 22.5t-22 8.5q-134 -1 -136 -1zM270 675q-16 -2 -30 -12t-21 -25q-8 -14 -7 -39q0 -293 -1 -418q1 -35 9 -50q9 -18 28 -28t40 -11h154.5h153.5v39h-149t-148 1
q-29 -1 -43 18q-5 7 -5 27v367q0 63 1 68q2 13 16 21q8 4 18.5 5t19 0t18.5 0q4 1 8 0.5t8.5 0.5t6.5 4q6 16 3 23q1 10 -12 10q-43 1 -68 -1zM649 664q-3 -14 8 -20q4 -4 9 -5t13 -1h11h6.5h8t7 -0.5t8 -1t6.5 -2t7 -3.5t6 -5q9 -13 9 -42q-1 -57 0 -248q27 0 37 1l1 2
q1 25 1 118.5v119.5q0 2 -0.5 13t-1 15.5t-1.5 13t-3.5 14.5t-6.5 12q-17 26 -51 30q-24 2 -52 1q-16 1 -22 -12zM487 571q-39 -3 -68.5 -33.5t-29.5 -69.5q-1 -31 16 -58t46 -40q32 -16 69.5 -8t60.5 36q17 20 23 46t-2 51q-10 36 -43.5 58t-71.5 18zM315 181h21
q3 49 21 78q17 32 54 56q38 -59 91 -138q21 33 86 140q31 -19 51.5 -50.5t24.5 -68.5h-19v-38h49h48v-48.5v-48.5h40v48.5v48.5h95v38h-49.5h-45.5q-1 11 -0.5 47.5t-0.5 47.5l-0.5 1l-0.5 1h-38v-51.5v-45.5h-57q-5 52 -39.5 94.5t-83.5 57.5l-3 -9l-3 -9q3 -1 9 -3.5
t9 -3.5q-13 -22 -37.5 -62.5t-34.5 -57.5q-7 10 -15 21.5t-17 26t-14 22.5l-32 48q3 2 20 9q-5 13 -6 18q-54 -17 -88.5 -65t-34.5 -104zM484 350q2 -4 4.5 -11.5l3.5 -10.5h18q4 10 9 22h-35zM490 317q-1 -7 -3 -20.5t-3 -25t0 -21.5q3 -5 10 -13.5t8 -9.5q2 2 7.5 8.5
t8 11.5t2.5 11q-1 9 -2 19t-2.5 22t-1.5 18h-11h-13zM484 550q28 5 55.5 -9t39.5 -41q11 -24 5 -52t-26 -45q-18 -17 -43 -21.5t-48 3.5q-27 9 -43.5 33.5t-13.5 52.5q0 29 22 52t52 27zM499 307h6q0 -7 1.5 -22.5t1.5 -23.5q2 -6 -6 -18q0 1 -4 6t-4 8q0 8 2 24.5t3 25.5z
" />
    <glyph glyph-name="xiaoxitixing" unicode="&#xe636;" 
d="M484 896h56q99 -7 181 -45q98 -43 171 -124t106 -181q17 -49 26 -134v-56q-6 -85 -38 -164.5t-87 -141.5q-58 -69 -138.5 -113.5t-169.5 -58.5q-27 -3 -51 -6h-56q-99 7 -181 45q-98 43 -171 124t-106 181q-17 49 -26 134v56q7 60 13 86q25 113 99.5 206t179.5 142
q87 42 192 50zM427 694q-13 -3 -20 -16t-3 -26q3 -12 14.5 -19t23.5 -5h60h59t19.5 5.5t11.5 14.5q7 16 -2.5 32t-26.5 14q-106 1 -136 0zM270 675q-32 -5 -46 -28q-13 -19 -12 -48v-213.5v-213.5q-2 -40 24 -61q22 -19 61 -19h149.5h149.5v39h-285q-34 0 -46 11
q-17 10 -16 41v392q1 29 3 40q7 20 30 23h29.5t29.5 1q7 4 9 13.5t-1 17.5q-2 6 -11 6q-43 1 -68 -1zM648 664q-2 -11 6.5 -19t19.5 -6q11 -2 21 -1t21.5 -1t19.5 -8q12 -13 12 -37q-1 -98 0 -256h38q1 20 1 94v94v30.5t-0.5 37t-3.5 29.5q-5 30 -31 44q-8 6 -19.5 8.5
t-19 3t-23 0t-19.5 -0.5q-15 1 -23 -12zM501 568q-2 -2 -3 -5t-1.5 -7t-1.5 -6q-43 -7 -65 -28q-30 -28 -52 -86q-17 -52 -37 -127h-12.5h-10.5q-1 -1 -3.5 -4t-3.5 -5l8 -8q6 -2 39.5 -1t39.5 1h150t150 -1v6v6.5v5.5h-336q9 36 23 84q10 29 14.5 41.5t16 34.5t25.5 36
q17 19 44 25t51 -3q33 -12 58 -56q10 -17 17.5 -37t16.5 -47.5t13 -39.5q4 -8 19 -1q-1 5 -14 49q-29 88 -64 124q-25 25 -64 31q-3 14 -4 14q-3 9 -13 4zM742 295v-97h-97v-38h97v-97h38q0 8 -0.5 48.5t2.5 48.5q12 1 47.5 0.5t47.5 -0.5v38h-97v97h-38zM453 255
q-3 -1 -5 -5q0 -4 -0.5 -6.5t2.5 -6t4.5 -5t5.5 -5t6 -4.5q28 -18 53 -11q32 5 47 31q2 6 -3.5 10.5t-9.5 1.5l-8.5 -8.5t-10.5 -9t-10 -5.5q-17 -7 -37 1q-6 2 -15 10.5t-11 10.5q-5 3 -8 1z" />
    <glyph glyph-name="dingdanguanli1" unicode="&#xe638;" 
d="M484 896h56q100 -7 185 -46q103 -47 183 -142q80 -98 105 -217q3 -18 11 -79v-56q-6 -88 -39.5 -169.5t-91.5 -144.5q-54 -60 -124.5 -101t-149.5 -58q-18 -3 -79 -11h-56q-94 7 -173 41q-100 42 -175.5 124t-109.5 185q-17 48 -26 134v56q3 23 6 50q19 134 108 245
q65 77 145 122q102 58 225 67zM426 694q-13 -4 -19.5 -17t-2.5 -25q3 -12 14.5 -19t23.5 -5h60h59q11 0 19.5 5.5t11.5 14.5q7 16 -3 32.5t-27 14.5h-68.5t-67.5 -1zM270 675q-28 -3 -45 -26q-15 -20 -13 -50q0 -279 -1 -418q1 -35 9 -50q9 -18 28 -28t40 -11h308v39h-149
h-148q-18 -1 -33.5 9.5t-14.5 28.5v209v209v11.5t1 12t3 11.5q11 14 26 15q10 1 30.5 1t30.5 1q6 4 8 12.5t0 14.5q1 10 -12 10q-45 1 -68 -1zM649 664q-3 -11 5.5 -19t19.5 -6q11 -2 20.5 -1t20.5 -0.5t18 -6.5q15 -11 15 -39q0 -8 -0.5 -127.5t0.5 -128.5q27 0 37 1l1 2
q1 26 1 118.5v119.5q0 2 -0.5 13t-1 15.5t-1.5 13t-3.5 14.5t-6.5 12q-17 26 -51 30q-24 2 -52 1q-16 1 -22 -12zM349 525q-9 -3 -12 -13t2 -17q8 -10 26 -9h265q1 0 6.5 0.5t7.5 0.5t6 1.5t6 4.5q12 8 5 21q-4 12 -31 12q-35 -1 -140.5 -0.5t-140.5 -0.5zM349 421
q-9 -3 -12 -13t3 -17q2 -4 6.5 -6t7.5 -2.5t9.5 -0.5h8.5h132t133 1q11 -2 20 7t4 20q-4 12 -31 12q-35 -1 -140.5 -0.5t-140.5 -0.5zM742 295v-48v-49h-48h-49v-38h49h48v-48v-49q3 0 20.5 -0.5t18.5 2.5q1 14 0.5 48t0.5 47h47.5h47.5v38h-47.5h-47.5q-1 12 -0.5 47.5
t-0.5 47.5l-0.5 1l-0.5 1h-38z" />
    <glyph glyph-name="daifukuan" unicode="&#xe639;" 
d="M484 896h56q102 -8 186 -47q98 -45 171 -128.5t105 -186.5q13 -42 22 -122v-56q-6 -85 -38 -164.5t-87 -141.5q-105 -124 -262 -163q-29 -7 -97 -15h-56q-99 7 -181 45q-98 43 -171 124t-106 181q-17 49 -26 134v56q8 68 15 97q27 109 101 199t176 138q87 42 192 50z
M309 652q-17 -6 -27.5 -20t-10.5 -31v-418q-1 -17 7.5 -32.5t23.5 -22.5q14 -7 39 -7h239q27 -51 77 -65q33 -10 68 -0.5t58 35.5q29 29 33 72.5t-19 77.5q-15 25 -53 46v293q-1 31 -4 39q-6 17 -21 27t-33 9h-170.5h-170.5q-28 0 -36 -3zM311 614q5 4 10.5 5.5t17 1.5h11.5
h162h162q23 0 30 -7q3 -4 4.5 -7.5t1.5 -11v-8.5v-133.5v-156.5q-50 3 -82 -17q-40 -24 -54 -67q-5 -15 -6 -56h-119.5h-119.5q-7 -1 -14.5 3.5t-8.5 12.5q0 5 -1 68q1 265 0 350q1 17 6 23zM581 559q-4 -4 -26 -33q-8 -11 -26.5 -35t-27.5 -38q-16 18 -43.5 53t-33.5 41
q-7 8 -12 11q-13 3 -19 -6q-8 -11 1 -22q12 -16 40 -50t43 -53h-39t-39 -2q-12 -3 -10 -17.5t14 -14.5q12 -1 44 -0.5t45 -0.5q-1 -8 -1.5 -23t-0.5 -19h-48h-48h-7.5t-9 -1t-6.5 -3q-7 -6 -5 -17t11 -13q15 -1 56.5 -0.5t56.5 0.5q0 -26 -1 -69q1 -21 3 -25q4 -5 11 -6
t12 2t9 19v39.5v39.5h48.5h48.5h7.5t8 0.5t6.5 2.5q10 9 4 22q-5 9 -19 9h-51h-51v43q6 0 45 -0.5t46 1.5q11 4 9 17.5t-14 14.5q-15 1 -43 1h-44q13 19 39.5 54t37.5 52q9 11 4 18q-3 8 -11 10.5t-14 -2.5zM680 262q24 4 47 -6t38 -29q15 -20 17 -46t-11 -48
q-15 -32 -51.5 -43t-67.5 5q-24 11 -37.5 34.5t-11.5 49.5q0 31 23 55.5t54 27.5zM677 238q-14 -5 -11 -18q-2 -35 0 -59q3 -12 11 -13q39 -3 68 0q10 3 9.5 15.5t-10.5 15.5q-2 1 -44 2q-1 41 -1 47q-3 6 -9.5 9t-12.5 1z" />
    <glyph glyph-name="daifanhuan" unicode="&#xe63a;" 
d="M484 896h56q105 -8 192 -50q102 -48 176 -138t101 -199q7 -29 15 -97v-56q-6 -85 -38 -164.5t-87 -141.5q-58 -69 -138.5 -113.5t-169.5 -58.5q-27 -3 -51 -6h-56q-103 8 -188 48q-98 45 -170.5 128t-103.5 186q-13 42 -22 122v56q7 61 13 86q25 113 99.5 206t179.5 142
q87 42 192 50zM273 677q-17 -9 -27 -29q-5 -12 -5 -35v-436q0 -25 2 -34q6 -20 23.5 -32.5t37.5 -11.5h140.5h140.5q28 -51 76 -68q44 -17 91.5 -1.5t71.5 55.5q19 29 21 64.5t-14 65.5q-17 37 -65 64v170v171q1 21 -8 35q-18 32 -63 31h-367q-4 0 -14 -0.5t-15 -0.5
t-12.5 -2t-13.5 -6zM295 649q7 1 60 1h307q45 0 52 -1q16 -6 17 -20q1 -8 1 -59v-140.5v-140.5q-35 2 -47 -1q-15 -4 -32 -4.5t-39 0t-32 -0.5h-27h-29t-26.5 2t-27.5 6q-9 3 -16.5 8.5t-15.5 14.5t-13 13q-1 13 -0.5 70t0.5 71h-75v-21h28h28q0 -109 -1 -118
q-25 -14 -54 -58q7 -7 15 -14q23 34 36 46q11 10 19 4q4 -3 12.5 -12.5t13.5 -12.5q18 -13 62 -17q22 -1 58 -0.5t58 -0.5q-29 -25 -40 -47q-20 -39 -13 -84h-255h-9t-10.5 0.5t-8 2.5t-8.5 6q-2 2 -4 5.5t-3 7.5t-1 7v8v7v222.5v221.5q0 10 5.5 18t14.5 10zM373 592
q-5 -5 -15 -14q39 -29 66 -59q7 7 15 14q-26 28 -66 59zM457 577v-21h54h54q-24 -64 -76 -114q-8 -8 -25 -22t-20 -17q11 -12 12 -14q5 1 9 4t8.5 7t6.5 6q31 25 71 77v-87.5v-88.5h21v100v100q-1 8 1 15.5t7 19t6 14.5q80 1 88 2v19h-217zM602 508q-8 -6 -15 -10
q61 -77 81 -109q3 2 8.5 5.5t8.5 5.5q-27 47 -83 108zM699 255q35 4 67 -17t41 -56q8 -26 -0.5 -53.5t-29.5 -45.5q-21 -19 -50 -24t-55 5q-29 10 -47.5 36.5t-17.5 56.5q-1 37 26.5 66.5t65.5 31.5zM693 211q-3 -4 -4.5 -10.5t-1 -12.5t-0.5 -12q1 -7 -2 -18t-3 -17
q4 -10 12 -16.5t17 -2.5q9 5 28.5 6t26.5 2q10 3 10.5 15t-9.5 16q-2 4 -22.5 3.5t-22.5 -0.5q0 30 -1 40q-2 9 -12 11t-16 -4z" />
    <glyph glyph-name="daijiesuan" unicode="&#xe63b;" 
d="M484 896h56q98 -7 181 -45q105 -45 186 -141q74 -90 102 -201q7 -30 15 -97v-56q-6 -88 -39.5 -169.5t-91.5 -144.5q-108 -121 -267 -157q-25 -6 -86 -13h-56q-94 7 -173 41q-98 41 -172 120.5t-109 178.5q-21 54 -30 144v56q8 67 15 97q28 111 103.5 202t180.5 139
q85 39 185 46zM270 676q-31 -19 -29 -55v-221.5v-222.5q1 -34 6 -44q8 -16 23.5 -25t33.5 -9h140.5h140.5q19 -34 48 -54q24 -15 52 -21q40 -7 79 10t60 51q21 31 21 70t-19 70q-18 31 -60 54v172.5v173.5q1 25 -18.5 43t-44.5 18h-188.5h-188.5h-9.5t-10.5 -0.5t-9 -1
t-10 -1.5t-8.5 -3t-8.5 -4zM287 645q3 3 6.5 4t10.5 1h8h196.5h196.5q16 1 24 -14q2 -5 2.5 -11t0.5 -10.5v-10.5v-157.5v-157.5q-37 6 -73 -8t-59 -43q-2 18 -8 26q-10 13 -27.5 14.5t-29.5 -9.5q-10 -9 -12 -23.5t6 -25.5q8 -13 25 -16t30 5q-16 -34 -10 -76h-255h-9
t-10.5 0.5t-8 2.5t-8.5 6q-3 3 -5 8t-2.5 8t-0.5 10.5v8.5v436q1 26 12 32zM302 565q0 -4 -1 -10t-1 -8q8 -1 22.5 -1.5t22.5 -1.5q1 -4 7.5 -19t9.5 -25t5 -20q17 -122 20 -142q1 -1 2 -5.5t1.5 -7t3 -4.5t5.5 -2h204q10 18 13 28q24 69 27 77q18 62 20 76q-7 5 -35 5
h-123.5h-123.5q-1 2 -9 22.5t-14 30.5q-1 4 -8 5q-8 0 -24 0.5t-24 1.5zM431 277q-14 -3 -23 -15.5t-6 -26.5q2 -16 16.5 -25.5t29.5 -5.5q17 3 26 19t2 31q-5 14 -18 20.5t-27 2.5zM385 486h257q-23 -79 -50 -148q-28 1 -88.5 -1t-92.5 -1q-3 0 -6 9q-17 121 -20 141z
M432 259q19 4 25 -8q7 -16 -4 -25q-6 -5 -14.5 -4t-13.5 6q-6 7 -4 17.5t11 13.5zM554 259q16 1 21 -3q6 -6 6 -15t-7 -14q-6 -6 -14.5 -5t-13.5 6q-6 7 -3.5 17.5t11.5 13.5zM699 255q32 4 61.5 -13t41.5 -46q11 -23 8 -50t-18 -47q-15 -21 -40 -32.5t-51 -8.5
q-36 1 -63.5 28t-29.5 63q-5 39 23 71t68 35zM682 203q-3 -35 0 -69q1 -11 20 -16q19 -1 54 0q19 -2 23 12q3 8 -1.5 14.5t-12.5 8.5q-2 1 -25 1h-25q0 45 -1 51q-4 12 -17.5 10.5t-14.5 -12.5z" />
    <glyph glyph-name="yifahuo1" unicode="&#xe63d;" 
d="M484 896h56q98 -7 181 -45q105 -45 186 -141q74 -90 102 -201q7 -30 15 -97v-56q-6 -88 -39.5 -169.5t-91.5 -144.5q-108 -121 -267 -157q-26 -6 -86 -13h-56q-102 8 -186 47q-107 48 -183.5 142.5t-101.5 208.5q-6 26 -13 86v56q8 67 15 97q28 111 103.5 202t180.5 139
q85 39 185 46zM270 676q-31 -19 -29 -55v-221.5v-222.5q1 -34 6 -44q8 -16 23.5 -25t33.5 -9h140.5h140.5q19 -34 48 -54q24 -15 52 -21q40 -7 79 10t60 51q21 31 21 70t-19 70q-18 31 -60 54v172.5v173.5q1 25 -18.5 43t-44.5 18h-188.5h-188.5h-9t-10.5 -0.5t-9.5 -1
t-10 -1.5t-8.5 -3t-8.5 -4zM280 640q9 12 32 10h196.5h196.5q16 1 24 -14q2 -5 2.5 -11t0.5 -10.5v-10.5v-157.5v-157.5q-43 7 -84 -13t-61 -59q-19 -37 -13 -84h-255h-9t-10.5 0.5t-8 2.5t-8.5 6q-3 3 -5 8t-2.5 8t-0.5 10.5v8.5v427q0 26 5 36zM450 551q-3 -3 -4.5 -7
t-2 -12t-0.5 -9q-37 -2 -39 -2q-4 -3 -7.5 -7.5t-7 -11t-5.5 -8.5q-48 -77 -73 -117q-7 -11 -7 -17q-1 -36 0 -68q0 -13 5 -19t13 -8t16 -1t16 0q12 -25 28 -22q17 -2 29 22q57 1 96 0q11 -16 16 -19q4 -2 21 -3q11 3 20 22q30 1 34 2q15 4 16 21v54q23 1 26 2q13 7 12 19
v85v86q1 9 -4.5 16.5t-14.5 8.5h-73h-74q-6 -1 -12 0t-12.5 -0.5t-11.5 -6.5zM464 536h53h62h52v-174h-52h-62h-53v54.5v64.5v55zM412 500h32q0 -19 -0.5 -68.5t0.5 -68.5q0 -9 7 -16t17 -5q15 -1 62 -1h62v-55h-14.5t-14.5 1t-11 7.5t-16 5.5q-7 2 -16.5 -6t-16.5 -7
q-29 -1 -85 0q-7 -1 -18.5 7t-18.5 7q-5 0 -8.5 -2.5t-8 -5.5l-7.5 -5q-16 -2 -33 -2v34.5v34.5q0 1 8 17q12 20 39 62.5t41 65.5zM401 437v-33.5v-31.5h-27v-8.5v-8.5h46v82h-19zM699 255q32 4 61.5 -13t41.5 -46q11 -23 8 -50t-18 -47q-15 -21 -40 -32.5t-51 -8.5
q-36 1 -63.5 28t-29.5 63q-5 39 23 71.5t68 34.5zM683 204q-2 -34 0 -69q2 -14 17 -15q32 -2 63 0q7 1 12 7.5t3 13.5q-2 12 -17 14q-11 1 -44 0q0 45 -1 52q-4 11 -17.5 10t-15.5 -13z" />
    <glyph glyph-name="taocanguanli" unicode="&#xe641;" 
d="M489 896h46q132 -7 241 -73q125 -76 191 -204q24 -46 39 -99q13 -46 18 -113v-46q-4 -61 -18 -114q-33 -117 -114 -206q-54 -61 -126 -102t-151 -57q-29 -6 -80 -10h-46q-130 7 -238 71q-115 69 -182 184q-32 55 -50 117q-13 47 -19 117v46q4 44 8 67q17 99 73 186
q45 70 111 123.5t144 81.5q71 26 153 31zM312 614q-15 -4 -24 -17.5t-8 -29.5v-183v-183q1 -40 1 -44q2 -15 14 -25.5t28 -11.5q21 19 85 74q77 65 96 80q12 7 13 7t13 -6q30 -23 103 -86q6 -5 35 -30t44 -39q17 1 29.5 13t13.5 29q0 19 -0.5 70.5t0.5 70.5h-22v-63.5v-64.5
q-1 -22 -8 -34q-4 0 -9 3t-7.5 5t-7.5 6.5t-7 6.5q-108 97 -155 136q-17 13 -21 15q-2 0 -4 -1t-4.5 -3t-3.5 -3q-25 -20 -110 -97q-65 -58 -71 -63q-9 -6 -14 -4q-4 2 -6 7q-3 9 -3 46v356q-1 20 9 31q12 13 33 12h159h159h37q12 -1 21.5 -9.5t11.5 -20.5q1 -3 1 -45
q6 0 21 -1q1 23 0 55q0 17 -13 30t-30 13h-188h-189q-16 -1 -22 -2zM683 497q-16 -2 -32 -10q-25 -12 -38 -38t-8 -53q5 -32 33 -53.5t60 -17.5q25 3 46 20t28 42q10 27 -3 58q-11 25 -35.5 40t-50.5 12zM681 475q27 5 50 -13.5t23 -46.5q3 -26 -15.5 -47t-44.5 -22
q-26 -3 -47 16t-22 45q-2 24 14.5 45t41.5 23zM680 449q-1 -4 -1 -27q-24 0 -28 -1q-5 -1 -4 -11q-2 -8 4 -9q4 -1 28 -1q0 -24 1 -28q1 -5 11 -4q8 -1 9 4q1 4 1 28q24 0 28 1q5 1 4 11q1 8 -5 9q-4 1 -27 1q-1 25 -1 28q-2 5 -11 4q-8 1 -9 -5z" />
    <glyph glyph-name="taocanyewu" unicode="&#xe642;" 
d="M489 896h46q132 -7 241 -73q125 -76 191 -204q24 -46 39 -99q13 -46 18 -113v-46q-4 -68 -23 -128q-33 -109 -109 -192q-54 -61 -126 -102t-151 -57q-29 -6 -80 -10h-46q-130 7 -238 72q-127 75 -194 205q-25 47 -40 102q-12 45 -17 110v46q3 38 6 55q15 100 69 189
q45 74 113 129.5t149 84.5q71 26 152 31zM435 610q-22 -26 -25 -62v-40h-33h-32q-15 0 -27 -10q-14 -10 -16 -31q-3 -41 -10.5 -130t-10.5 -136q-2 -13 4 -25t18 -18q9 -6 31 -6h186h186q13 -1 25 5.5t18 17.5q6 10 4 39q-7 85 -21 256q-1 14 -12 25t-25 12q-7 1 -35 1h-35
q0 46 -3 57q-6 28 -27 50t-49 29q-29 9 -60 -0.5t-51 -33.5zM506 626q29 3 51 -9q20 -10 33 -29.5t13 -41.5q1 -3 1 -38h-173v16.5v18.5t2 16t6 17q8 20 26.5 33.5t40.5 16.5zM326 475q5 12 19 11q6 1 32.5 0.5t32.5 -0.5v-21t-1 -22q-1 -2 -4.5 -7t-5.5 -8q-3 -11 4.5 -20
t18.5 -7q9 1 15 8.5t4 16.5q0 3 -4.5 9t-4.5 11q-1 1 -1 40h173v-21t-1 -22q-1 -2 -4.5 -7t-5.5 -8q-3 -11 4.5 -20t18.5 -7q9 1 15 8.5t4 16.5q0 3 -4.5 9t-4.5 11q-1 1 -1 40q6 0 35 0.5t35 -0.5q7 -1 12 -7.5t4 -13.5q4 -41 22 -266q1 -8 -3.5 -15.5t-12.5 -8.5
q-5 -1 -22 -1h-185.5h-186.5q-7 0 -12.5 4t-7.5 11q-1 4 -1 14q4 47 11 134.5t10 122.5q2 13 3 15z" />
    <glyph glyph-name="zhanghaoguanli" unicode="&#xe658;" 
d="M489 896h46q132 -7 241 -73q113 -68 178 -180q33 -56 51 -119q13 -47 19 -117v-46q-4 -58 -16 -105q-33 -129 -126 -225q-110 -117 -267 -149q-29 -5 -80 -10h-46q-101 6 -188 45q-122 55 -201 163q-78 106 -95 233q-2 15 -5 48v46q4 40 6 57q16 101 72 191
q46 75 117 131t155 84q65 22 139 26zM425 626q-33 -3 -60.5 -23t-40.5 -50q-14 -30 -10 -65t25 -62q20 -28 59 -43q-67 -15 -110 -63q-53 -59 -51 -140q1 -14 7 -17q5 -3 10.5 1t3.5 10q0 47 13 79q16 39 48.5 68t73.5 39q36 9 75 2t70 -29q11 -7 16 -4q5 2 5.5 8.5
t-4.5 9.5q-31 25 -80 36q52 17 74 67q14 30 10.5 64t-22.5 61q-19 26 -49.5 40.5t-62.5 10.5zM608 454q-12 -22 -10 -48t16 -46q15 -21 44 -33q-42 -9 -71 -38q-45 -43 -43 -106q1 -14 7 -16q5 -3 10 1t4 10q-1 39 15 67q16 30 47 48t65 15q29 -1 55 -17t41 -41q2 -4 6 -13
t7 -13t11 -2q10 3 6 13q-11 35 -40 60t-65 32q20 9 32 20q25 24 28 59q1 29 -11 49q-11 23 -34.5 36t-48.5 10q-22 -1 -41.5 -14t-29.5 -33zM425 604q27 4 53 -8t42 -34q15 -22 18 -49.5t-8 -51.5q-12 -29 -37 -46q-24 -16 -53.5 -16.5t-53.5 13.5t-38 38.5t-13 52.5
q-1 37 26 67.5t64 33.5zM674 479q25 3 41 -6q16 -8 26.5 -24.5t9.5 -35.5q2 -24 -14.5 -44t-40.5 -23q-22 -5 -43 7.5t-29 33.5q-13 37 9 66q15 22 41 26z" />
    <glyph glyph-name="guanbixiao" unicode="&#xe659;" 
d="M340 566h9q12 -9 22 -20q66 -65 141 -141q136 137 162 161h8q16 -6 10 -20q-3 -5 -7.5 -9.5l-10.5 -10.5l-9 -9l-132 -132q24 -25 71.5 -72.5t53.5 -52.5l11.5 -11.5t13.5 -14.5l10 -12q1 -6 -1.5 -11.5t-8.5 -6.5q-2 -3 -6.5 -1t-5.5 2.5t-5 4t-5 4.5q-143 143 -150 149
q-58 -57 -154 -154q-7 -7 -17 -6q-5 2 -10 11v8q4 5 161 162l-148 148q-7 7 -13 15v10q6 6 10 9z" />
    <glyph glyph-name="tijiaochenggong" unicode="&#xe65a;" 
d="M512 896q-139 0 -257 -68.5t-186.5 -186.5t-68.5 -257t68.5 -257t186.5 -186.5t257 -68.5t257 68.5t186.5 186.5t68.5 257t-68.5 257t-186.5 186.5t-257 68.5zM850 543l-386 -386q-14 -14 -34 -14v0q-20 0 -34 14l-222 222q-13 14 -13 33q0 20 14.5 34t33.5 14
q20 0 34 -13l187 -188l351 352q15 15 36 15q20 0 34 -14t14 -34q0 -21 -15 -35v0z" />
    <glyph glyph-name="xialacaidanxiaosanjiao" unicode="&#xe65b;" horiz-adv-x="1365" 
d="M682 578l259 -388h-519z" />
    <glyph glyph-name="gengduo" unicode="&#xe65c;" horiz-adv-x="4778" 
d="M1680.5 578q-80.5 0 -137.5 -57t-57 -137t57 -137t137.5 -57t137.5 57t57 137t-57 137t-137.5 57zM2393.5 578q-80.5 0 -137.5 -57t-57 -137t57 -137t137.5 -57t137.5 57t57 137t-57 137t-137.5 57zM3106.5 578q-80.5 0 -137.5 -57t-57 -137t57 -137t137.5 -57t137.5 57
t57 137t-57 137t-137.5 57z" />
    <glyph glyph-name="xialacaidanxiaosanjiao1" unicode="&#xe65d;" horiz-adv-x="1365" 
d="M684 126l-260 388h519z" />
  </font>
</defs>
</svg>
